<svg xmlns="http://www.w3.org/2000/svg" viewBox="0 0 150 150">
  <style type="text/css">.cls-0 {fill:#FFFFFF;}
.cls-1 {fill:none;stroke:#0a0a0a;stroke-width:2.8346;stroke-linecap:round;stroke-linejoin:round;stroke-miterlimit:10;}
.cls-eye {fill:#0a0a0a;}</style>
  <path class="cls-0" d="M15.8 64.4 C19.9 39.1 42.9 13.8 75 13.8 C106.1 13.8 129.5 37.1 134.3 64.0 L126.5 108.5 C114.8 127.5 96.8 137.2 75 137.2 C47.9 137.2 32.6 122.3 23.7 107.5 Z"/>
  <path class="cls-1" d="m15.8 64.4c4.1-25.3 27.1-50.6 59.2-50.6 31.1 0 54.5 23.3 59.3 50.2"/>
  <path class="cls-1" d="m23.7 107.5c8.9 13.9 24.2 28.8 51.3 28.8 21.8 0 39.8-9.7 51.5-28.7"/>
  <path class="cls-0" d="m28.3 58.4-14.7 6.9-10.2 42.2 14.9-9.3-1.5 14.7c5.3-4 18.8-13.8 18.8-32.9 0-10.3-4.9-18.2-7.3-21.6z"/>
  <path class="cls-1" d="m28.3 58.4-14.7 6.9-10.2 42.2 14.9-9.3-1.5 14.7c5.3-4 18.8-13.8 18.8-32.9 0-10.3-4.9-18.2-7.3-21.6z"/>
  <path class="cls-0" d="m121.8 58.4 14.7 6.9 10.1 42.2-14.5-9.3 1.2 14.7c-5.3-4-18.5-12.7-18.5-32.9 0-10.3 4.6-17.7 7-21.6z"/>
  <path class="cls-1" d="m121.8 58.4 14.7 6.9 10.1 42.2-14.5-9.3 1.2 14.7c-5.3-4-18.5-12.7-18.5-32.9 0-10.3 4.6-17.7 7-21.6z"/>
  <path class="cls-eye" d="m75.2 71.8c-3.3 0.1-5.5 1-7.3 2.4-0.5 0.5-0.9 1.2-0.3 2.4l5.9 11.1c0.8 1.5 2.4 1.5 3 0l5.6-11.1c0.5-1 0.4-1.8-0.3-2.4-1.7-1.5-4-2.4-6.6-2.4z"/>
  <path class="cls-eye" d="m94.8 50.1c-6.1 0-11.7 4.7-11.7 11.9 0.3 6.6 5 11.8 11.8 11.8 6.9 0 11.4-5.4 11.4-11.5 0-5.9-5-12.2-11.5-12.2zm3.7 11.2c-1.5 0-2.9-1.3-2.9-2.9 0-1.4 1.2-2.9 2.9-2.9 1.6 0 2.8 1.2 2.8 2.9 0 1.6-1.3 2.9-2.8 2.9z"/>
  <path class="cls-eye" d="m55.4 50.1c-5.7 0.2-11.8 4.6-11.8 12 0.1 5.5 4.3 11.7 11.8 11.7 6.3 0 11.3-4.9 11.3-11.3 0.1-6.1-5-12.4-11.3-12.4zm3.5 11.2c-1.5 0-2.8-1.3-2.8-2.9s1.2-2.9 2.8-2.9c1.5 0 2.9 1.2 2.9 2.9 0 1.6-1.4 2.9-2.9 2.9z"/>
</svg>
